<mxfile host="app.diagrams.net" modified="2023-11-24T18:46:36.458Z" agent="Mozilla/5.0 (X11; Linux x86_64; rv:109.0) Gecko/20100101 Firefox/114.0" etag="iv6GcW-YdMcorBXCFEbS" version="22.1.3" type="device">
  <diagram name="PÃ¡gina-1" id="-JkIOXFNWmTnDN814xZK">
    <mxGraphModel dx="1188" dy="789" grid="1" gridSize="10" guides="1" tooltips="1" connect="1" arrows="1" fold="1" page="1" pageScale="1" pageWidth="1169" pageHeight="827" math="0" shadow="0">
      <root>
        <mxCell id="0" />
        <mxCell id="1" parent="0" />
        <mxCell id="M2E19cieBR7NBifoGKxq-1" value="Trabajadores bar" style="ellipse;whiteSpace=wrap;html=1;aspect=fixed;" parent="1" vertex="1">
          <mxGeometry x="400" y="280" width="160" height="160" as="geometry" />
        </mxCell>
        <mxCell id="M2E19cieBR7NBifoGKxq-2" value="Gestion bar" style="rounded=0;whiteSpace=wrap;html=1;" parent="1" vertex="1">
          <mxGeometry x="60" y="320" width="140" height="80" as="geometry" />
        </mxCell>
        <mxCell id="M2E19cieBR7NBifoGKxq-3" value="" style="endArrow=classic;html=1;rounded=0;exitX=1;exitY=0.5;exitDx=0;exitDy=0;" parent="1" source="M2E19cieBR7NBifoGKxq-2" target="M2E19cieBR7NBifoGKxq-1" edge="1">
          <mxGeometry width="50" height="50" relative="1" as="geometry">
            <mxPoint x="560" y="440" as="sourcePoint" />
            <mxPoint x="610" y="390" as="targetPoint" />
          </mxGeometry>
        </mxCell>
        <mxCell id="M2E19cieBR7NBifoGKxq-6" value="0" style="text;html=1;strokeColor=none;fillColor=none;align=center;verticalAlign=middle;whiteSpace=wrap;rounded=0;" parent="1" vertex="1">
          <mxGeometry x="465" y="290" width="30" height="20" as="geometry" />
        </mxCell>
      </root>
    </mxGraphModel>
  </diagram>
</mxfile>
